HIERARCHY
ROOT root
{
	OFFSET 0.000000 0.000000 0.000000
	CHANNELS 6 Xposition Yposition Zposition Zrotation Yrotation Xrotation
	JOINT lhip
	{
		OFFSET 0.058581 -0.082280 -0.017664
		CHANNELS 3 Zrotation Yrotation Xrotation
		JOINT lknee
		{
			OFFSET 0.043451 -0.386469 0.008037
			CHANNELS 3 Zrotation Yrotation Xrotation
			JOINT lankle
			{
				OFFSET -0.014790 -0.426874 -0.037428
				CHANNELS 3 Zrotation Yrotation Xrotation
				JOINT ltoe
				{
					OFFSET 0.041054 -0.060286 0.122042
					CHANNELS 3 Zrotation Yrotation Xrotation
					End Site
					{
						OFFSET 0.000000 0.000000 0.000000
					}
				}
			}
		}
	}
	JOINT rhip
	{
		OFFSET -0.060310 -0.090513 -0.013543
		CHANNELS 3 Zrotation Yrotation Xrotation
		JOINT rknee
		{
			OFFSET -0.043257 -0.383688 -0.004843
			CHANNELS 3 Zrotation Yrotation Xrotation
			JOINT rankle
			{
				OFFSET 0.019056 -0.420046 -0.034562
				CHANNELS 3 Zrotation Yrotation Xrotation
				JOINT rtoe
				{
					OFFSET -0.034840 -0.062106 0.130323
					CHANNELS 3 Zrotation Yrotation Xrotation
					End Site
					{
						OFFSET 0.000000 0.000000 0.000000
					}
				}
			}
		}
	}
	JOINT lowerback
	{
		OFFSET 0.004439 0.124404 -0.038385
		CHANNELS 3 Zrotation Yrotation Xrotation
		JOINT upperback
		{
			OFFSET 0.004488 0.137956 0.026820
			CHANNELS 3 Zrotation Yrotation Xrotation
			JOINT chest
			{
				OFFSET -0.002265 0.056032 0.002855
				CHANNELS 3 Zrotation Yrotation Xrotation
				JOINT lowerneck
				{
					OFFSET -0.013390 0.211636 -0.033468
					CHANNELS 3 Zrotation Yrotation Xrotation
					JOINT upperneck
					{
						OFFSET 0.010113 0.088937 0.050410
						CHANNELS 3 Zrotation Yrotation Xrotation
						End Site
						{
							OFFSET 0.000000 0.000000 0.000000
						}
					}
				}
				JOINT lclavicle
				{
					OFFSET 0.071702 0.114000 -0.018898
					CHANNELS 3 Zrotation Yrotation Xrotation
					JOINT lshoulder
					{
						OFFSET 0.122921 0.045205 -0.019046
						CHANNELS 3 Zrotation Yrotation Xrotation
						JOINT lelbow
						{
							OFFSET 0.255332 -0.015649 -0.022946
							CHANNELS 3 Zrotation Yrotation Xrotation
							JOINT lwrist
							{
								OFFSET 0.265709 0.012698 -0.007375
								CHANNELS 3 Zrotation Yrotation Xrotation
								End Site
								{
									OFFSET 0.000000 0.000000 0.000000
								}
							}
						}
					}
				}
				JOINT rclavicle
				{
					OFFSET -0.082954 0.112472 -0.023707
					CHANNELS 3 Zrotation Yrotation Xrotation
					JOINT rshoulder
					{
						OFFSET -0.113228 0.046853 -0.008472
						CHANNELS 3 Zrotation Yrotation Xrotation
						JOINT relbow
						{
							OFFSET -0.260127 -0.014369 -0.031269
							CHANNELS 3 Zrotation Yrotation Xrotation
							JOINT rwrist
							{
								OFFSET -0.269108 0.006794 -0.006027
								CHANNELS 3 Zrotation Yrotation Xrotation
								End Site
								{
									OFFSET 0.000000 0.000000 0.000000
								}
							}
						}
					}
				}
			}
		}
	}
}
MOTION
Frames: 7
Frame Time: 0.033333
1.139456 1.631285 1.016565 -28.288654 5.295298 93.710050 4.843196 7.402929 -10.830708 -1.819587 12.177006 12.350390 1.074850 13.801948 -13.220257 0.000000 -0.000000 0.000000 3.436017 0.186811 -17.907018 -1.188145 -8.357266 21.379727 1.738961 -8.227229 -16.613816 0.000000 -0.000000 0.000000 -3.688394 -1.659870 17.126744 4.161027 -4.740769 -1.991088 0.214503 -1.682523 1.467850 10.759687 -14.058347 -7.761779 6.908984 -28.420470 13.237946 -20.843912 -1.659823 1.045305 -55.038489 -14.106691 11.430705 -1.425192 -16.390909 3.763801 -2.592592 -11.172603 -14.030298 23.097390 2.387884 -2.806260 63.272653 8.931306 17.417546 -12.920185 34.638581 -7.008577 2.187848 7.768209 -22.847824 
1.138610 1.636499 1.015785 -30.832608 5.242796 93.037005 5.195901 8.116804 -10.327271 -1.877318 13.338658 12.622034 0.921722 14.487634 -13.228203 0.000000 -0.000000 0.000000 2.884569 -1.397686 -16.463044 -1.217327 -10.679659 24.019563 1.506813 -9.430312 -17.741248 0.000000 -0.000000 0.000000 -3.583503 -1.522222 17.099937 3.971994 -4.770874 -2.295719 0.152772 -1.635321 1.819999 10.918244 -14.585361 -7.314955 6.978958 -28.570719 13.818281 -20.632000 -1.833199 1.033725 -54.234193 -15.073087 10.258751 -0.680041 -14.817123 2.557739 -2.381536 -10.889812 -13.854663 23.137478 1.996889 -2.972279 63.200656 8.215932 16.440145 -12.177766 31.783655 -6.824308 2.590829 7.488304 -22.211286 
1.137554 1.642037 1.015306 -33.198512 5.189343 92.282236 5.645516 8.700854 -9.513319 -2.109278 14.060713 12.419539 0.865546 15.142682 -12.883039 0.000000 -0.000000 0.000000 1.913414 -2.808303 -14.561970 -0.844720 -12.299546 25.979586 1.277554 -10.460974 -18.562020 0.000000 -0.000000 0.000000 -3.351692 -1.482151 17.127046 3.939312 -4.881586 -2.458977 0.113253 -1.541823 1.767210 10.855566 -15.323129 -7.024723 7.082371 -28.552273 14.262564 -20.672223 -1.819516 0.968630 -53.414792 -15.670918 9.190869 0.481154 -14.269907 0.953255 -1.760380 -10.683115 -14.201205 23.238923 1.880966 -3.004873 62.783926 7.681130 15.290220 -11.396290 28.146526 -6.914119 3.286535 6.792348 -21.184347 
1.134733 1.649265 1.014604 -36.339675 5.045279 91.500363 6.193021 9.572111 -8.979224 -2.071695 15.495009 12.926654 0.641958 15.783555 -12.950785 0.000000 -0.000000 0.000000 0.625877 -5.193924 -11.884346 -0.820426 -14.183190 27.163177 0.828865 -11.691886 -19.653676 0.000000 -0.000000 0.000000 -2.869470 -1.391962 16.653025 3.816734 -5.013252 -2.516508 0.084940 -1.253611 1.709235 10.820297 -15.477717 -7.280546 7.154166 -28.031925 14.511516 -20.714641 -1.330519 0.551298 -52.399025 -16.120214 8.066308 1.340820 -14.707553 -0.422839 -1.059938 -10.480132 -14.549869 23.679414 1.681536 -3.017682 61.899983 7.258517 13.674980 -10.746845 22.651983 -8.289446 3.953553 6.175486 -19.399266 
1.132187 1.654074 1.013661 -38.006677 4.747376 91.257712 6.339390 10.073347 -8.807362 -2.025107 16.432625 13.112101 0.656954 16.012934 -12.902887 0.000000 -0.000000 0.000000 -0.478543 -7.045245 -10.268306 -1.054146 -15.815753 27.185148 0.718399 -13.011575 -20.444433 0.000000 -0.000000 0.000000 -2.444972 -0.927460 16.533968 3.708726 -4.909960 -3.645137 0.027670 -1.637747 1.916119 10.713964 -15.755251 -7.335110 7.036252 -28.060897 14.942880 -20.593485 -0.867339 0.724902 -51.786778 -16.426996 7.658299 0.957384 -15.473641 -0.019250 2.035002 -10.896667 -15.079252 23.960440 1.063994 -3.033541 61.362292 6.989612 12.648277 -10.355929 19.232637 -9.612692 -1.748800 6.218497 -16.579696 
1.128489 1.661901 1.013117 -40.663104 4.578299 90.445605 7.017319 10.993312 -7.866680 -2.089671 18.117071 12.959810 0.216778 16.295390 -12.914498 0.000000 -0.000000 0.000000 -1.697918 -9.013488 -7.761179 -1.798546 -18.481794 26.748906 0.478787 -14.817810 -21.248529 0.000000 -0.000000 0.000000 -2.142811 -0.755359 16.137681 3.664828 -4.815487 -3.156951 0.339284 -1.294769 1.561493 10.326866 -16.093454 -7.312110 7.418487 -27.410323 14.419507 -20.613295 -0.910450 0.549364 -51.037426 -16.597111 6.922385 1.389217 -16.819860 -0.826629 1.147542 -10.525345 -15.870844 23.758456 1.160873 -3.018638 60.723898 6.687564 10.855164 -9.830444 15.444103 -12.638326 0.342219 5.215767 -17.680906 
1.122703 1.672549 1.011823 -44.072919 4.218584 90.297586 7.771011 12.110980 -7.396926 -2.290662 20.044862 12.652262 0.153104 16.471854 -12.539810 0.000000 -0.000000 0.000000 -2.584014 -11.376450 -6.635744 -3.105349 -20.880298 26.058184 -0.283791 -17.070770 -21.243133 0.000000 -0.000000 0.000000 -2.312479 -0.188333 15.096872 3.608730 -4.263707 -3.181343 0.639100 -1.034386 1.536892 10.193124 -16.346384 -7.743351 7.447645 -27.201677 14.845860 -20.590740 -0.351210 0.604071 -50.120791 -16.890058 6.447539 1.344974 -18.720427 -0.278321 1.298290 -10.851110 -16.305101 24.379655 0.829006 -2.674496 59.612174 6.900487 9.463114 -9.657145 11.882593 -13.836612 0.626350 5.506154 -15.623079 
